<svg width="108" height="108" viewBox="0 0 108 108" fill="none" xmlns="http://www.w3.org/2000/svg">
<g clip-path="url(#clip0_11_53)">
<rect width="108" height="108" rx="54" fill="#312631"/>
<path d="M54 91C72.7846 91 88.1538 77.2326 88.1538 56.5814C88.1538 42.9527 79.3774 28.3023 64.2462 23.6608V25.6047L54 22.1628C53.0631 24.9954 53.1543 35.0809 53.4274 43.6078C50.1531 42.3205 36.9231 43.0198 36.9231 45.6653C36.9231 46.5258 36.9231 47.3862 40.3385 47.3862C41.3726 47.3862 42.5632 47.3073 43.8629 47.2212C46.7332 47.0311 50.1357 46.8057 53.56 47.3165C53.6454 49.4903 53.735 51.4436 53.8109 52.9898C51.3867 51.4217 36.9231 51.5216 36.9231 54.8605C36.9231 55.7209 36.9231 56.5814 40.3385 56.5814C41.3725 56.5814 42.5631 56.5025 43.8628 56.4164C46.856 56.2181 50.4281 55.9815 54 56.5814C58.2693 56.5815 65.4932 61.8269 63.9615 61.8269C63.223 61.8269 62.2243 61.5065 60.9312 61.0915C57.7392 60.0673 52.7537 58.4675 45.4615 59.6923C30.9462 63.1342 24.9692 63.4651 23.2615 41.093C19.8462 47.9767 19.8462 50.5582 19.8462 56.5814C19.8461 75.5117 35.2154 91 54 91Z" fill="#E14B2A"/>
<path d="M20.0169 60.024C19.904 58.8913 19.8462 57.7428 19.8462 56.5814C19.8462 50.5582 19.8462 47.9767 23.2615 41.093C23.9776 50.4744 25.4444 55.8637 27.9768 58.7054C27.5007 59.8791 26.5673 60.8837 24.9692 60.8837C23.7804 60.8837 23.3273 60.6984 22.8416 60.4997C22.2985 60.2777 21.7148 60.0389 20.0169 60.024Z" fill="#FFE8D2"/>
<path d="M71.0769 17C72.7846 20.4419 74.4923 35.9302 71.0769 39.3721C68.7419 36.7907 63.7918 30.7674 62.6711 27.3256C61.5503 23.8837 67.808 19.0078 71.0769 17Z" fill="#FF603D"/>
<path d="M69.7953 20.4419C70.9052 22.8247 72.015 33.5474 69.7953 35.9302C68.2778 34.1431 65.0607 29.9732 64.3323 27.5903C63.6039 25.2075 67.6708 21.8318 69.7953 20.4419Z" fill="#FFE8D2"/>
<path d="M36.9311 17C35.2234 20.4419 33.5157 35.9302 36.9311 39.3721C39.266 36.7907 44.2161 30.7674 45.3369 27.3256C46.4577 23.8837 40.2 19.0078 36.9311 17Z" fill="#FF603D"/>
<path d="M38.2126 20.4419C37.1028 22.8247 35.9929 33.5474 38.2126 35.9302C39.7301 34.1431 42.9472 29.9732 43.6756 27.5904C44.404 25.2075 40.3371 21.8319 38.2126 20.4419Z" fill="#FFE8D2"/>
<path d="M71.0769 38.5116C71.0769 38.8003 71.0691 39.0871 71.0536 39.3721L71.0769 39.3721L54 56.5814L36.923 39.3721L36.9463 39.3721C36.9309 39.0871 36.923 38.8003 36.923 38.5116C36.923 29.4824 44.5686 22.1628 54 22.1628C63.4313 22.1628 71.0769 29.4824 71.0769 38.5116Z" fill="#FF603D"/>
<path d="M43.8407 36.2752C44.3638 36.1434 45.2473 36.0615 46.1552 36.2566C47.0568 36.4503 47.9609 36.9114 48.5802 37.8475C48.6886 38.0113 48.9093 38.0563 49.0732 37.9479C49.237 37.8395 49.282 37.6187 49.1736 37.4549C48.4267 36.3259 47.3385 35.7831 46.3047 35.5609C45.2772 35.3401 44.2823 35.4302 43.6669 35.5852C43.4764 35.6332 43.3608 35.8266 43.4088 36.0171C43.4568 36.2077 43.6502 36.3232 43.8407 36.2752Z" fill="black"/>
<path d="M64.1592 36.2752C63.6362 36.1434 62.7526 36.0615 61.8447 36.2566C60.9432 36.4503 60.039 36.9114 59.4198 37.8475C59.3113 38.0113 59.0906 38.0563 58.9267 37.9479C58.7629 37.8395 58.7179 37.6187 58.8263 37.4549C59.5732 36.3259 60.6614 35.7831 61.6952 35.5609C62.7227 35.3401 63.7176 35.4302 64.333 35.5852C64.5236 35.6332 64.6391 35.8266 64.5911 36.0171C64.5431 36.2077 64.3497 36.3232 64.1592 36.2752Z" fill="black"/>
<path d="M35.2153 39.3721C36.923 39.3721 40.7653 43.6744 44.6077 47.9767C48.45 52.2791 52.2923 56.5814 54 56.5814C55.7076 56.5814 59.55 52.2791 63.3923 47.9767C67.2346 43.6744 71.0769 39.3721 72.7846 39.3721C65.1628 39.3721 60.2624 39.3721 55.6543 51.6123C54.6374 51.354 53.3625 51.354 52.3457 51.6123C47.7375 39.3721 42.8371 39.3721 35.2153 39.3721Z" fill="#FFE8D2"/>
<path d="M52.2923 51.4186C52.2923 52.9214 53.3677 54.8605 54 54.8605C54.6323 54.8605 55.7077 52.9214 55.7077 51.4186C55.7076 49.6977 52.2923 49.6977 52.2923 51.4186Z" fill="black"/>
</g>
<defs>
<clipPath id="clip0_11_53">
<rect width="108" height="108" fill="white"/>
</clipPath>
</defs>
</svg>
